<?xml version="1.0" encoding="UTF-8"?>
<svg id="Capa_1" data-name="Capa 1" xmlns="http://www.w3.org/2000/svg" viewBox="0 0 544.92 255.9">
  <defs>
    <style>
      .cls-1 {
        fill: #6aa13b;
        fill-rule: evenodd;
      }

      .cls-2 {
        fill: #4c9b00;
      }

      .cls-3 {
        fill: #232323;
      }

      .cls-4 {
        fill: #a5cb42;
      }

      .cls-5 {
        fill: none;
      }
    </style>
  </defs>
  <g>
    <g id="Layer_1">
      <g id="_216362096" data-name=" 216362096">
        <polygon id="_216362360" data-name=" 216362360" class="cls-1" points="260.49 213.27 300.27 213.02 300.2 205.88 260.41 206.13 260.49 213.27"/>
        <path id="_216362072" data-name=" 216362072" class="cls-1" d="M289.98,206.17c-.74-24.11,6.32-41.89,12.83-58.28,9.59-24.16,18.01-45.38-.05-78.99,22.3,6.83,38.15,23.53,38.37,43.15,.34,31.23-43.2,58.69-43.43,94.08l-7.72,.05h0Zm-24.95,.16c-1.01-35.38-45.14-62.28-45.48-93.52-.21-19.62,15.27-36.52,37.42-43.63-17.33,33.84-8.45,54.95,1.67,78.98,6.86,16.3,14.31,34,14.1,58.11l-7.72,.05h0Z"/>
        <rect class="cls-3" x="273.86" y="213.18" width="12.19" height="25.62"/>
      </g>
    </g>
    <polygon class="cls-5" points="393.75 254.31 165.56 255.9 163.69 67.01 391.89 65.42 393.75 254.31"/>
  </g>
  <path class="cls-4" d="M232.44,128.8c-2.59-34.38,29.6-62.38,52.82-89.65,1.79,15.85,18.52,28.98,28.2,41.1,9.67,12.12,19.07,25.73,18.06,42.08-1.07,17.22-25.6,45.94-37.57,61.25-36.69-36.11-16.04-95.72-16.04-95.72-6.82,13.25-10.84,25.52-12.78,36.79,.88,24.54,7.88,52.45,29.96,74.18,16.47-21.08,50.25-60.62,51.72-84.32,1.4-22.51-11.54-41.24-24.86-57.93-13.32-16.69-36.36-34.76-38.82-56.58-31.96,37.54-76.29,76.08-72.72,123.42,2.49,32.96,24.58,51.06,52.12,63.57-2.49-6.05-4.61-12.58-6.18-19.59-13.11-8.66-22.54-20.56-23.9-38.59"/>
  <g>
    <path class="cls-2" d="M21.06,96.97l.04-24.64-16.39,.02c-2.67,.12-4.73,2.13-4.61,4.49l-.04,24.2,16.39-.02c2.53,0,4.59-1.81,4.61-4.04Z"/>
    <path class="cls-2" d="M39.36,138.07l.09-61.28c.12-2.36-1.93-4.36-4.6-4.47h-7.08s-.04,24.65-.04,24.65c-.01,5.49-5.07,9.95-11.29,9.95,0,0,0,0,0,0l-16.39,.02L0,138.12c-.14,2.37,1.92,4.38,4.6,4.5l30.14-.04c2.68-.13,4.74-2.15,4.61-4.52Z"/>
    <path class="cls-4" d="M46.04,138.06c23.52,22.79,87.31,27.43,116.89,4.91,9.36-6.03,12.52-22.39,9.62-48.86-2.74-35.61-68.67-34.01-86.99-21.46-1.48,.98-3.58,.71-4.68-.6-1.07-1.27-.81-3.05,.58-4.05,6.92-4.75,18.91-8.04,32.23-9,3.47-10.63-7.13-16.73-17.4-15.92-27.11-.05-46.8,22.41-51.68,28.54,.99,1.58,1.51,3.35,1.53,5.16l-.09,61.28Z"/>
  </g>
  <g>
    <path class="cls-2" d="M525,95.91l-.03-25.47,15.5,.02c2.52,.13,4.47,2.2,4.36,4.64l.03,25.01-15.5-.02c-2.39,0-4.34-1.87-4.36-4.18Z"/>
    <path class="cls-2" d="M507.69,138.39l-.09-63.33c-.12-2.44,1.83-4.5,4.35-4.62h6.69s.03,25.48,.03,25.48c.01,5.68,4.79,10.28,10.68,10.28,0,0,0,0,0,0l15.5,.02,.04,32.23c.13,2.45-1.82,4.53-4.35,4.65l-28.51-.04c-2.54-.13-4.49-2.22-4.36-4.67Z"/>
    <path class="cls-4" d="M501.38,138.38c-22.24,23.55-82.57,28.36-110.54,5.09-8.85-6.23-11.84-23.14-9.1-50.49,2.6-36.8,64.94-35.16,82.27-22.19,1.4,1.01,3.38,.73,4.42-.62,1.01-1.31,.77-3.15-.55-4.19-6.54-4.91-17.88-8.31-30.47-9.3-3.28-10.99,6.74-17.29,16.46-16.46,25.63-.06,44.26,23.15,48.87,29.49-.93,1.63-1.43,3.46-1.44,5.33l.09,63.33Z"/>
  </g>
</svg>